# xmcd
#
# Track frame offsets: 
#        150
#        14176
#        27976
#        40094
#        54892
#        68931
#        87444
#        102092
#        118550
#        136617
#        160808
#        176559
#        193266
#
# Disc length: 2741 seconds
#
# Revision: 0
# Processed by: cddbd v1.5.2PL0 Copyright (c) Steve Scherf et al.
# Submitted via: ExactAudioCopy v0.99pb3
#
DISCID=aa0ab30d
DTITLE=King Clarentz - Day Of The Supermodel
DYEAR=2008
DGENRE=Blues
TTITLE0=Pea Vine Whistle
TTITLE1=Supermodel
TTITLE2=Death Letter Blues
TTITLE3=Alex Jones
TTITLE4=Cooking With Your Nightdress On
TTITLE5=Lonesome Ghost
TTITLE6=Down On The Burying Grounds
TTITLE7=Martha Stewart
TTITLE8=Rim O'The Koochie
TTITLE9=Hurricane Party
TTITLE10=New GOP
TTITLE11=Empire State
TTITLE12=Sunshine Rocker
EXTD=
EXTT0=
EXTT1=
EXTT2=
EXTT3=
EXTT4=
EXTT5=
EXTT6=
EXTT7=
EXTT8=
EXTT9=
EXTT10=
EXTT11=
EXTT12=
PLAYORDER=
